<svg xmlns="http://www.w3.org/2000/svg" viewBox="0 0 1341.55 358.03"><defs><style>.cls-1{font-size:238.11px;font-family:TrebuchetMS-Bold, Trebuchet MS;font-weight:700;}.cls-1,.cls-3{fill:#2abbdd;}.cls-2{fill:#142b40;}.cls-4{fill:#fff;}</style></defs><g id="text"><text class="cls-1" transform="translate(371.03 248.37) scale(1.08 1)">stride<tspan class="cls-2" x="644.82" y="0">go</tspan></text></g><g id="logo"><circle class="cls-3" cx="179.02" cy="179.02" r="179.02"/><path class="cls-4" d="M106.09,318.32c-.73,1.3.28,6.35,2,10.68s4.19,8.94,5.78,15.15,6.35,13.28,8.65,14.29,4.19-1.88,4-3.47-2-8.08-1.29-10.68,3.17-11.4,4.19-14.57-.73-2.89-.15-4.19,4.61-6.35,8.22-10.68,14.94-14.11,20.47-19.43,9.36-12.33,13-14.24,7.23-6.16,8.93-9.56a15.55,15.55,0,0,1,2.05-3.11c1.93-2.37,14.4-12.37,14.4-12.37,8-9,9.32-20.21,10.55-24.28-9.37-2.19-20.86-5.74-25.24-10.65-.07.38-.18.92-.3,1.8-.35,2.62-5.72.89-11.36,15-3.14,6.64-.49,17.64-4.39,24.43s-18.57,11-24.66,21.6c-5.85,10.63-5.94,16.09-9.84,21.13s-10,10.57-10.46,9.56-.72-.58-2.17.14-6.64,1.45-8.08,2.46-3.6-.29-4.32,1Zm45-158.81c.92,1.82,4,8,8.56,15.46s16.13,19.34,17.22,22.61,2.24,11.62,2.77,14.42c.13.71.22,1.49.29,2.27.1.32.2.69.3,1.12.48,2.05,2.7,4.5,3.33,4s.55-.64-.43-2.6a8.3,8.3,0,0,1-.75-4.89,11.12,11.12,0,0,0,.66,3.26,18,18,0,0,0,1.31,2.9c1.19,2.12,1.58,3.78,3.47,3.39s-2.13-7.34-2.13-9.08.24-1.42,1.19.71,3.71,9.15,5.21,8.45-1.82-8.29-3.16-11.05.79-1.65,2,1,3.87,6.86,4.81,6.55-.55-5.06-2.44-8.53a13.21,13.21,0,0,1-1.9-5.68s2,1.5,3.08,2.29,3.95,1.42,4.89.55-1.42-1.89-3.47-3.07c-1.88-1.09-3.29-4.86-4.84-6.5l-.64-.59c-.31-.26-.58-.52-.83-.77a91.65,91.65,0,0,1-8.39-8.62,108.84,108.84,0,0,1-7.51-11.25c-2.55-5-7.81-14.89-7.43-16.55s4.58-1.71,9.18-4a18.37,18.37,0,0,0,5-3.83c1.89-1.89,2.9-4.57,6.12-6.57,0,0-1.92,3.89.69,13.11a122.19,122.19,0,0,1,4.37,33.25c9.86-1.69,19.89.92,29.48,4.69a38.85,38.85,0,0,1,.66-10c1.42-7.33,5.11-19.64,6-23.58.61,1.43,6.35,14.82,8.8,17.87s6.31,3.47,8.35,3.67,3.88-4.88,7-12,5.75-21.11,6.38-24,4-5.5,5.26-7.93,3.28-7.92,4.19-9.28,3.39-4.42,2.15-5.72-3.64,3.25-4.66,4.66,1.26-4.43,1.6-5.45,2.43-5.37.85-6.51-4,6.62-4.8,8.66-.67.17-.39-1,2.53-7.13,3-9.56-1.58-2.72-2.32-1.36-3.12,8.29-3.86,10.11c-1.21,2.28-1.18-.46-1.18-.46s.8-5.23,1.19-8.35-1.88-2.34-2.57-.83-1.1,6.73-1.51,9.33a14.53,14.53,0,0,1-1.78,5.09c-.55,1.37-.85-1.22-1.95-4s-4.39-3.57-4.94-2.33,1.1,2.74,1.92,4.67.3,3.68.85,5.73a63.42,63.42,0,0,1,1.37,8.24c.28,2.61-1.23,7.41-3.16,12.49s-5,9.37-5.21,11.5c0-4.09-.07-9.94-1.85-12.83-3.68-5.43-.31-4.71-2.15-14.84-1.84-11.8-12.25-10.35-14.72-11s-4.85-1.37-4.85-2a20.61,20.61,0,0,1,1.4-5.71c.95-2.34,5,.13,6.73.72a3.61,3.61,0,0,0,4.63-1.79c.88-1.9-.06-2,1.33-2.83s-.48-2.86-.48-2.86a2.13,2.13,0,0,0,1.94-1.09c.8-1.25-.72-1.51-1.09-2.32s1.77-.41,2.72-1.14-1.07-4.21-2-5.31-.51-2.49-.07-4,.27-3.57-1.23-7.93c-.48-1.39,2.87-5.08,2.7-6.65-.46-4.14-8.86-4.59-14.73-6.53-9.86-3.27-20.06-1.23-21.8,8.46s4.51,19.81,4.87,22.17-.9,9.46-2,10.37-8.73-1.09-14,1.82c-5,2.78-5.41,8.12-9.69,11.2l-.61.44c-4.73,3.27-9.69,6.18-17.51,13.09s-9.64,12.55-8.74,14.37Zm106.16,50.64c-7.19-3.65-19-6.29-27.26-8-7.75,3-12,22.26-11.41,31.78a82.81,82.81,0,0,0,13.87,3.29c10,1.28,25.45-1.47,27.79-.4s-4.78,3.82-7.52,9.54c-5.74,11.43-2.16,23.65-3.36,29.26s-2.24,12.09-3.41,15.38-4.29,8.07-4.71,7.83-.29-.46-2.65,2.11-3,5.16-4,7.62-4,1-2.71,4.6,9.42,6.72,14.38,8.48,11.07,5.58,18.95,8.43,13.36,1.43,13.59-1.12-.35-3.53-4-5.88-5.91-3.1-9.17-7.56a92.87,92.87,0,0,1-6.26-10.87c-.77-1.49.07-3.47-2-3.53-1.67-2.57,2.24-11.68,8.06-25.51s10.46-25.24,13.14-32.64,2.79-15.78-.9-18.6-8.46-8.15-20.4-14.22Z" transform="translate(-24.02 -41.56)"/><path class="cls-4" d="M150.13,168.57c-.92-1.63-1.75-3.13-2.45-4.45l-32.82,2.15,35.27,2.3ZM177,124.35a12.6,12.6,0,0,1,4.55-4.54,10,10,0,0,1,1.14-.55l-66.14,2.66L177,124.35Zm-48,54,28.85,2.09c-1.08-1.37-2.09-2.71-3-4L129,178.34Zm4-46.61,34.51,2.19c1.27-.85,2.48-1.65,3.67-2.48l.62-.43a11,11,0,0,0,2-1.86L133,131.73Zm36.9,95.37c3-3.11,5.12-3.07,5.33-4.7l0-.16-27,2.7,21.67,2.16Zm-7.55,16.51L133,246.3,162,249c.09-1.82.17-3.62.36-5.34Zm-16.3-90L126.38,155,145,156.38a12.15,12.15,0,0,1,1.12-2.77Z" transform="translate(-24.02 -41.56)"/></g></svg>