<?xml version="1.0" encoding="utf-8"?>
<!-- Generator: Adobe Illustrator 24.1.1, SVG Export Plug-In . SVG Version: 6.00 Build 0)  -->
<svg version="1.1" xmlns="http://www.w3.org/2000/svg" xmlns:xlink="http://www.w3.org/1999/xlink" x="0px" y="0px"
	 viewBox="0 0 1280 1024" style="enable-background:new 0 0 1280 1024;" xml:space="preserve">
<style type="text/css">
	.st0{fill:#2ABBDD;}
	.st1{fill:#FFFFFF;}
</style>
<g id="Layer_1">
	<g>
		<circle class="st0" cx="605" cy="521" r="494"/>
	</g>
</g>
<g id="Layer_2">
	<path class="st1" d="M337.47,790.71c-1.99,3.58,0.79,17.52,5.57,29.47c4.78,11.95,11.56,24.69,15.93,41.81
		c4.38,17.13,17.52,36.64,23.89,39.43c6.38,2.79,11.56-5.18,11.15-9.57c-0.39-4.38-5.57-22.29-3.58-29.47
		c1.99-7.17,8.77-31.46,11.56-40.21c2.78-8.77-2-7.97-0.41-11.56c1.6-3.58,12.74-17.52,22.69-29.47
		c9.96-11.95,41.23-38.94,56.49-53.62c15.25-14.66,25.81-34.03,35.78-39.3c9.97-5.28,19.94-17.02,24.63-26.4
		c1.49-2.99,3.17-5.5,5.67-8.57c5.33-6.54,39.73-34.13,39.73-34.13c22.13-24.9,25.73-55.78,29.11-67.02
		c-25.85-6.04-57.56-15.83-69.65-29.36c-0.18,1.04-0.5,2.53-0.83,4.95c-0.97,7.23-15.79,2.46-31.34,41.33
		c-8.67,18.33-1.35,48.7-12.11,67.43c-10.74,18.71-51.25,30.39-68.06,59.6c-16.14,29.35-16.39,44.39-27.15,58.32
		c-10.74,13.94-27.67,29.17-28.88,26.38c-1.19-2.79-1.99-1.6-5.98,0.39c-3.97,1.99-18.32,3.98-22.3,6.77
		C345.43,790.71,339.46,787.12,337.47,790.71L337.47,790.71z M461.62,352.47c2.52,5.02,11.05,22.08,23.6,42.66
		c12.54,20.57,44.52,53.38,47.54,62.41c3.01,9.03,6.18,32.06,7.64,39.78c0.37,1.97,0.6,4.11,0.81,6.26c0.28,0.88,0.55,1.9,0.83,3.09
		c1.31,5.66,7.44,12.42,9.18,11.11c1.74-1.31,1.52-1.78-1.21-7.18c-2.73-5.4-2.21-8.75-2.06-13.5c0.2,3.11,0.67,5.73,1.82,8.99
		c0.68,1.91,1.61,4.38,3.62,7.99c3.28,5.87,4.36,10.44,9.58,9.36c5.23-1.09-5.87-20.24-5.87-25.04c0-4.78,0.66-3.92,3.26,1.97
		c2.61,5.88,10.23,25.25,14.37,23.3c4.13-1.97-5.02-22.86-8.71-30.48c-3.69-7.63,2.17-4.57,5.44,2.83
		c3.28,7.4,10.68,18.93,13.29,18.07c2.61-0.88-1.52-13.94-6.75-23.52c-5.23-9.58-5.23-15.67-5.23-15.67s5.44,4.14,8.49,6.32
		c3.05,2.17,10.89,3.92,13.5,1.52c2.61-2.4-3.92-5.23-9.58-8.49c-5.18-2.99-9.07-13.39-13.35-17.94c-0.45-0.41-1.04-0.96-1.77-1.62
		c-0.85-0.72-1.6-1.43-2.28-2.12c-6.79-6.34-18.78-17.82-23.15-23.79c-7.59-10.34-16.86-23.51-20.73-31.04
		c-7.05-13.74-21.57-41.08-20.52-45.66c1.06-4.59,12.66-4.7,25.35-11.06c5.57-2.78,9.58-6.47,13.67-10.57
		c5.23-5.23,8.01-12.6,16.9-18.13c0,0-5.31,10.73,1.9,36.19c10.55,37.21,12.2,72,12.07,91.73c27.2-4.65,54.89,2.56,81.34,12.96
		c-0.42-6.47-0.43-16,1.82-27.57c3.93-20.23,14.11-54.19,16.5-65.07c1.69,3.94,17.53,40.88,24.28,49.32
		c6.75,8.42,17.43,9.55,23.05,10.12c5.62,0.56,10.7-13.47,19.21-33.08c8.52-19.63,15.88-58.26,17.61-66.37
		c1.72-8.12,11.08-15.19,14.52-21.9c3.43-6.72,9.05-21.86,11.54-25.6c2.5-3.75,9.37-12.19,5.94-15.78
		c-3.43-3.59-10.02,8.96-12.84,12.87c-2.8,3.9,3.47-12.24,4.42-15.04c0.93-2.82,6.71-14.83,2.35-17.96
		c-4.38-3.12-11.06,18.27-13.25,23.89c-2.19,5.62-1.86,0.46-1.07-2.66c0.79-3.13,6.98-19.65,8.39-26.38
		c1.4-6.71-4.38-7.49-6.41-3.75c-2.03,3.75-8.62,22.89-10.65,27.9c-3.33,6.29-3.26-1.27-3.26-1.27s2.21-14.44,3.3-23.03
		c1.09-8.58-5.2-6.45-7.1-2.28c-1.89,4.17-3.03,18.55-4.17,25.75c-1.38,8.71-3.9,11.46-4.93,14.02c-1.51,3.79-2.33-3.34-5.36-10.91
		c-3.03-7.57-12.12-9.84-13.64-6.43c-1.51,3.41,3.04,7.57,5.31,12.88c2.27,5.29,0.81,10.15,2.33,15.83
		c1.52,5.69,3.03,15.54,3.79,22.73c0.76,7.19-3.41,20.45-8.71,34.47c-5.29,14.01-13.8,25.85-14.39,31.74
		c-0.07-11.31-0.18-27.44-5.11-35.4c-10.15-15-0.84-13.01-5.92-40.95c-5.07-32.59-33.81-28.58-40.63-30.46
		c-6.81-1.9-13.36-3.76-13.36-5.58s1.21-9.29,3.84-15.76c2.62-6.46,13.74,0.35,18.59,1.98c4.85,1.61,10.35,0.33,12.78-4.93
		c2.42-5.25-0.17-5.4,3.67-7.82c3.84-2.42-1.34-7.89-1.34-7.89s3.12,0.42,5.35-3.01c2.23-3.43-1.97-4.17-2.99-6.39
		c-1.01-2.21,4.87-1.14,7.49-3.16c2.63-2.02-2.95-11.61-5.37-14.64c-2.42-3.03-1.41-6.87-0.21-10.91c1.22-4.04,0.76-9.84-3.39-21.87
		c-1.32-3.85,7.94-14.02,7.46-18.36c-1.27-11.43-24.44-12.67-40.63-18.03c-27.21-9-55.37-3.39-60.18,23.36
		c-4.81,26.77,12.46,54.65,13.46,61.18c1.01,6.53-2.5,26.1-5.52,28.62c-3.01,2.5-24.11-3.01-38.67,5.02
		c-13.9,7.67-14.92,22.41-26.73,30.91c-0.56,0.39-1.13,0.8-1.7,1.21c-13.05,9.03-26.74,17.06-48.32,36.12
		C464.13,331.89,459.11,347.45,461.62,352.47L461.62,352.47z M754.54,492.22c-19.82-10.08-52.4-17.36-75.21-22.04
		c-21.4,8.31-33.14,61.43-31.49,87.68c11.92,3.76,25.75,7.49,38.27,9.09c27.58,3.51,70.22-4.06,76.68-1.13
		c6.45,2.94-13.18,10.55-20.74,26.34c-15.84,31.54-5.96,65.26-9.26,80.75c-3.29,15.49-6.18,33.36-9.41,42.43
		c-3.22,9.07-11.84,22.29-13,21.61c-1.15-0.68-0.81-1.26-7.31,5.82c-6.49,7.08-8.44,14.24-11.19,21.03
		c-2.74,6.79-11.01,2.86-7.47,12.71c3.54,9.87,25.98,18.53,39.68,23.4c13.72,4.86,30.56,15.38,52.29,23.24
		c21.74,7.87,36.87,3.94,37.5-3.08c0.62-7.02-0.97-9.75-11.07-16.22c-10.12-6.49-16.31-8.57-25.3-20.87
		c-6.22-8.5-12.47-20.85-17.27-30.01c-2.14-4.09,0.18-9.57-5.4-9.74c-4.61-7.09,6.17-32.22,22.24-70.38
		c16.05-38.14,28.87-69.65,36.26-90.08c7.4-20.44,7.69-43.55-2.48-51.32C800.7,523.68,787.5,508.97,754.54,492.22L754.54,492.22z"/>
	<path class="st1" d="M459.02,377.49c-2.55-4.51-4.83-8.66-6.77-12.3l-90.57,5.94L459.02,377.49L459.02,377.49z M533.12,255.46
		c3.07-4.77,6.64-9.3,12.54-12.55c1.02-0.56,2.07-1.06,3.16-1.49l-182.52,7.34L533.12,255.46L533.12,255.46z M400.75,404.43
		l79.61,5.77c-2.97-3.77-5.75-7.47-8.18-10.95L400.75,404.43L400.75,404.43z M411.85,275.82l95.24,6.04
		c3.5-2.35,6.83-4.56,10.13-6.84c0.58-0.41,1.14-0.81,1.69-1.21c2.14-1.53,3.92-3.28,5.48-5.14L411.85,275.82L411.85,275.82z
		 M513.68,538.98c8.15-8.58,14.11-8.45,14.71-12.95c0.01-0.16,0.04-0.29,0.07-0.45l-74.59,7.43L513.68,538.98L513.68,538.98z
		 M492.84,584.54l-80.99,7.43l80.01,7.32C492.1,594.27,492.33,589.29,492.84,584.54L492.84,584.54z M447.85,336.19l-54.39,3.93
		l51.31,3.72C445.33,341.64,446.32,339.06,447.85,336.19L447.85,336.19z"/>
</g>
</svg>
